<svg width="30" height="30" viewBox="0 0 30 30" fill="none" xmlns="http://www.w3.org/2000/svg">
<circle cx="15" cy="15" r="14" fill="white" stroke="black"/>
<path d="M18.1429 11.0318V9.15629L12.2857 9L12.4762 11.2923V14.9392L12.8571 15.1476L13.5238 14.4182C13.5238 14.4182 14.1971 14.0339 14.6667 14.0014C15.1398 13.9687 15.4296 14.0376 15.8571 14.2619C16.2973 14.4928 16.5319 14.7083 16.8095 15.1476C17.1408 15.6717 17.2486 16.0734 17.2381 16.7105C17.2236 17.593 16.9469 18.1693 16.3333 18.7423C15.8052 19.2355 15.3607 19.4426 14.6667 19.4196C14.0246 19.3984 13.5627 19.2741 13.1429 18.7423C12.7737 18.2748 12.7143 17.2315 12.7143 17.2315H12.4762L12 18.8465C12 18.8465 12.964 19.5604 13.6667 19.7843C14.2779 19.9791 14.6495 20.0191 15.2857 19.9927C15.8907 19.9676 16.2395 19.9035 16.8095 19.6801C17.2401 19.5113 17.5337 19.4609 17.8571 19.107C18.5714 18.3256 19 17.6483 19 16.3979C19 14.7829 18.4084 14.2619 18.1429 14.0014C17.5821 13.4514 17.0716 13.4347 16.3333 13.272C15.3853 13.0632 14.1429 13.1158 13.8571 13.272C13.6173 13.4033 13.2857 13.6888 13.2857 13.6888L13.381 10.8234L18.1429 11.0318Z" fill="black"/>
</svg>
