<svg width="30" height="30" viewBox="0 0 30 30" fill="none" xmlns="http://www.w3.org/2000/svg">
<circle cx="15" cy="15" r="14" fill="white" stroke="black"/>
<path d="M14.15 7.56303L14.55 7.71429L14.85 8.62185L15 9.02521L15.1 8.62185L15.5 7.66387L15.8979 7.51261L15.5497 7.15966L16.1963 7.10924L15.7487 6.7563H16.3953L15.9974 6.55462L15.8482 6.30252L16.2958 6.35294L16.9921 6.10084L17.6885 6L18.534 6.15126L18.7827 6.40336H19.2801L19.678 6.60504L19.9267 6.85714L19.7775 7.0084H19.6283L19.4293 6.90756L18.8822 7.15966L19.9267 7.41176H20.4241L20.3743 7.61345L20.0759 7.81513H19.678L19.3298 7.71429L19.0314 7.61345H18.9319L19.1309 7.81513L18.7827 8.01681L18.3351 8.06723L17.9372 7.91597L17.5393 8.01681L17.1414 8.26891L16.8429 9.02521V9.98319L17.3901 10.8908L17.589 11.395L17.9372 11.4958H18.4843L19.0314 11.2941L19.4293 10.7899L19.1806 10.3361V9.57983L19.5288 8.67227L19.9764 8.26891L20.623 8.06723H21.2696L21.8665 8.26891L23.1099 8.97479V9.17647L23.7565 10.3361L24.0052 11.1933L24.2539 11.7479L24.4031 12.4034L24.4529 13.0084L24.4031 13.3613L24.5026 14.0672L24.5524 14.9244L24.4529 15.8319L24.5026 16.8908L24.6518 17.7479L24.7513 18.2521L25 18.8067V18.958L24.7513 18.9076L24.2042 18.4034V18.6555L24.2539 18.7563L23.856 18.605L23.4581 18.3025L23.5576 18.6555L23.2094 18.4034L22.6623 18L22.6126 18.1513L22.2147 17.8487L21.8665 17.395L21.5681 16.8403V16.5378L21.1702 16.1345L21.0209 16.3361L20.6728 16.084L20.1257 15.0756L19.877 15.1261L19.5785 14.874L19.3298 15.479L18.7827 14.9748L18.6335 15.5294L18.3351 15.4286L18.0366 15.0756L17.8377 15.4286L17.7382 15.479L17.4398 15.3782L17.3403 15.6807L17.6885 15.7311L17.9869 15.9832L18.6832 16.6891L18.9319 16.7899L18.7827 17.042L18.9319 17.2941L18.8822 17.5966L20.2749 18.8571L21.1702 17.9496H21.8168L22.1649 18.0504L22.3141 18.2521L22.1649 18.4034L22.5131 18.8571L22.3639 18.958L22.5131 19.1597L22.5628 19.4118L22.3639 19.6134L22.2644 19.3613L22.0654 19.2605L22.0157 19.5126L21.3691 19.7143H20.4738L20.1257 20.2185L19.9267 20.4706H19.678L19.6283 20.9748C19.562 20.9412 19.4194 20.8639 19.3796 20.8235C19.3398 20.7832 19.2304 20.5714 19.1806 20.4706V20.1176L19.4293 19.563L19.7277 19.4118V19.1597L19.1309 18.7059L18.4843 18.2017H18.2356L18.1361 18.3529L17.7382 18.2017H17.4895L16.5942 17.6975L16.4948 17.6471L16.445 17.8992L18.6832 22.2353L18.2356 23.1429L18.0366 23.2941L17.2408 23.1933L16.6937 23.7479H16.445L15.7984 23.395L15 24L14.25 23.4454L13.6 23.7983H13.35L12.8 23.2437L12 23.3445L11.8 23.1933L11.35 22.2857L13.6 17.9496L13.55 17.6975L13.45 17.7479L12.55 18.2521H12.3L11.9 18.4034L11.8 18.2521H11.55L10.9 18.7563L10.3 19.2101V19.4622L10.6 19.6134L10.85 20.1681V20.521C10.8 20.6218 10.69 20.8336 10.65 20.874C10.61 20.9143 10.4667 20.9916 10.4 21.0252L10.35 20.521H10.1L9.9 20.2689L9.55 19.7647H8.65L8 19.563L7.95 19.3109L7.75 19.4118L7.65 19.6639L7.45 19.4622L7.5 19.2101L7.65 19.0084L7.5 18.9076L7.85 18.4538L7.7 18.3025L7.85 18.1008L8.2 18H8.85L9.75 18.9076L11.15 17.6471L11.1 17.3445L11.25 17.0924L11.1 16.8403L11.35 16.7395L12.05 16.0336L12.35 15.7815L12.7 15.7311L12.6 15.4286L12.3 15.5294L12.2 15.479L12 15.1261L11.7 15.479L11.4 15.5798L11.25 15.0252L10.7 15.5294L10.45 14.9244L10.15 15.1765L9.9 15.1261L9.35 16.1345L9 16.3866L8.85 16.1849L8.45 16.5882V16.8908L8.15 17.4454L7.8 17.8992L7.4 18.2017L7.35 18.0504L6.8 18.4538L6.45 18.7059L6.55 18.3529L6.15 18.6555L5.75 18.8067L5.8 18.7059V18.4538L5.25 18.958L5 19.0084V18.8571L5.25 18.3025L5.35 17.7983L5.5 16.9412L5.55 15.8824L5.45 14.9748L5.5 14.1176L5.6 13.4118L5.55 13.0588L5.6 12.4538L5.75 11.7983L6 11.2437L6.25 10.3866L6.9 9.22689V9.02521L8.15 8.31933L8.75 8.11765H9.4L10.05 8.31933L10.5 8.72269L10.85 9.63025V10.3866L10.6 10.8403L11 11.3445L11.55 11.5462H12.1L12.45 11.4454L12.65 10.9412L13.2 10.0336V9.07563L12.9 8.31933L12.5 8.06723L12.1 7.96639L11.7 8.11765L11.25 8.06723L10.9 7.86555L11.1 7.66387H11L10.7 7.76471L10.35 7.86555H9.95L9.65 7.66387L9.6 7.46218H10.1L11.15 7.21008L10.6 6.95798L10.4 7.05882H10.25L10.1 6.90756L10.35 6.65546L10.75 6.45378H11.25L11.5 6.20168L12.35 6.05042L13.05 6.15126L13.75 6.40336L14.2 6.35294L14.05 6.60504L13.65 6.80672H14.3L13.85 7.15966L14.5 7.21008L14.15 7.56303Z" fill="black"/>
</svg>
