<svg width="27" height="27" viewBox="0 0 27 27" fill="none" xmlns="http://www.w3.org/2000/svg">
<path d="M10.7706 18V17.233L13.6513 14.0795C13.9893 13.7102 14.2678 13.3892 14.4865 13.1165C14.7053 12.8409 14.8672 12.5824 14.9723 12.3409C15.0803 12.0966 15.1342 11.8409 15.1342 11.5739C15.1342 11.267 15.0604 11.0014 14.9126 10.777C14.7678 10.5526 14.5689 10.3793 14.3161 10.2571C14.0632 10.1349 13.7791 10.0739 13.4638 10.0739C13.1286 10.0739 12.8359 10.1435 12.5859 10.2827C12.3388 10.419 12.147 10.6108 12.0107 10.858C11.8771 11.1051 11.8104 11.3949 11.8104 11.7273H10.8047C10.8047 11.2159 10.9226 10.767 11.1584 10.3807C11.3942 9.99432 11.7152 9.69318 12.1214 9.47727C12.5305 9.26136 12.9893 9.15341 13.4979 9.15341C14.0092 9.15341 14.4624 9.26136 14.8572 9.47727C15.2521 9.69318 15.5618 9.98437 15.7862 10.3509C16.0107 10.7173 16.1229 11.125 16.1229 11.5739C16.1229 11.8949 16.0646 12.2088 15.9482 12.5156C15.8345 12.8196 15.6357 13.1591 15.3516 13.5341C15.0703 13.9062 14.6797 14.3608 14.1797 14.8977L12.2195 16.9943V17.0625H16.2763V18H10.7706Z" fill="black"/>
<path d="M1.24852 9.51925L13.5 0.618034L25.7515 9.51925L21.0718 23.9217H5.92817L1.24852 9.51925Z" stroke="black"/>
</svg>
