<svg width="40" height="42" viewBox="0 0 40 42" fill="none" xmlns="http://www.w3.org/2000/svg">
<path d="M20.4784 27.8498C19.632 27.8498 18.8843 27.6998 18.2351 27.3999C17.5901 27.0959 17.0868 26.6789 16.7252 26.1489C16.3637 25.6147 16.185 25.0067 16.1891 24.3247C16.185 23.7905 16.2897 23.2975 16.5034 22.8456C16.717 22.3895 17.0087 22.0095 17.3785 21.7054C17.7524 21.3973 18.1694 21.2021 18.6295 21.12V21.046C18.0256 20.8899 17.5449 20.5509 17.1874 20.0292C16.83 19.5033 16.6533 18.9055 16.6574 18.2358C16.6533 17.5948 16.8156 17.0217 17.1443 16.5163C17.473 16.011 17.9249 15.6124 18.5001 15.3207C19.0794 15.029 19.7389 14.8832 20.4784 14.8832C21.2097 14.8832 21.863 15.029 22.4382 15.3207C23.0134 15.6124 23.4653 16.011 23.794 16.5163C24.1268 17.0217 24.2953 17.5948 24.2994 18.2358C24.2953 18.9055 24.1124 19.5033 23.7509 20.0292C23.3934 20.5509 22.9189 20.8899 22.3273 21.046V21.12C22.7833 21.2021 23.1942 21.3973 23.5598 21.7054C23.9255 22.0095 24.2172 22.3895 24.435 22.8456C24.6527 23.2975 24.7636 23.7905 24.7677 24.3247C24.7636 25.0067 24.5788 25.6147 24.2131 26.1489C23.8515 26.6789 23.3482 27.0959 22.7032 27.3999C22.0623 27.6998 21.3207 27.8498 20.4784 27.8498ZM20.4784 26.494C21.0495 26.494 21.5425 26.4015 21.9575 26.2167C22.3725 26.0318 22.6929 25.7709 22.9189 25.434C23.1449 25.0971 23.2599 24.7026 23.264 24.2507C23.2599 23.7741 23.1366 23.353 22.8942 22.9873C22.6518 22.6217 22.3211 22.3341 21.902 22.1245C21.4871 21.915 21.0125 21.8102 20.4784 21.8102C19.9402 21.8102 19.4595 21.915 19.0363 22.1245C18.6172 22.3341 18.2865 22.6217 18.0441 22.9873C17.8058 23.353 17.6887 23.7741 17.6928 24.2507C17.6887 24.7026 17.7976 25.0971 18.0194 25.434C18.2454 25.7709 18.5679 26.0318 18.987 26.2167C19.4061 26.4015 19.9032 26.494 20.4784 26.494ZM20.4784 20.5037C20.9303 20.5037 21.3309 20.4133 21.6802 20.2325C22.0335 20.0517 22.3108 19.7991 22.5121 19.4745C22.7135 19.1499 22.8162 18.7699 22.8203 18.3344C22.8162 17.9071 22.7155 17.5353 22.5183 17.2189C22.3211 16.8984 22.0479 16.6519 21.6986 16.4793C21.3494 16.3027 20.9427 16.2143 20.4784 16.2143C20.0059 16.2143 19.593 16.3027 19.2397 16.4793C18.8863 16.6519 18.6131 16.8984 18.42 17.2189C18.2269 17.5353 18.1324 17.9071 18.1365 18.3344C18.1324 18.7699 18.229 19.1499 18.4262 19.4745C18.6275 19.7991 18.9048 20.0517 19.2582 20.2325C19.6115 20.4133 20.0182 20.5037 20.4784 20.5037Z" fill="black"/>
<path d="M3.15205 32.2769L20.9521 1.44622L38.7523 32.2769H3.15205Z" stroke="black" stroke-width="1.44622"/>
</svg>
