<svg width="27" height="27" viewBox="0 0 27 27" fill="none" xmlns="http://www.w3.org/2000/svg">
<path d="M13.532 18.1193C12.9695 18.1193 12.468 18.0227 12.0277 17.8295C11.5902 17.6364 11.2422 17.3679 10.9837 17.0241C10.728 16.6776 10.5888 16.2756 10.5661 15.8182H11.6399C11.6626 16.0994 11.7592 16.3423 11.9297 16.5469C12.1001 16.7486 12.3232 16.9048 12.5987 17.0156C12.8743 17.1264 13.1797 17.1818 13.5149 17.1818C13.8899 17.1818 14.2223 17.1165 14.5121 16.9858C14.8018 16.8551 15.0291 16.6733 15.1939 16.4403C15.3587 16.2074 15.4411 15.9375 15.4411 15.6307C15.4411 15.3097 15.3615 15.027 15.2024 14.7827C15.0433 14.5355 14.8104 14.3423 14.5036 14.2031C14.1967 14.0639 13.8217 13.9943 13.3786 13.9943H12.6797V13.0568H13.3786C13.7251 13.0568 14.0291 12.9943 14.2905 12.8693C14.5547 12.7443 14.7607 12.5682 14.9084 12.3409C15.0589 12.1136 15.1342 11.8466 15.1342 11.5398C15.1342 11.2443 15.0689 10.9872 14.9382 10.7685C14.8075 10.5497 14.6229 10.3793 14.3842 10.2571C14.1484 10.1349 13.87 10.0739 13.549 10.0739C13.2479 10.0739 12.9638 10.1293 12.6967 10.2401C12.4325 10.348 12.2166 10.5057 12.049 10.7131C11.8814 10.9176 11.7905 11.1648 11.7763 11.4545H10.7536C10.7706 10.9972 10.9084 10.5966 11.1669 10.2528C11.4254 9.90625 11.7635 9.63636 12.1811 9.44318C12.6016 9.25 13.0632 9.15341 13.5661 9.15341C14.1058 9.15341 14.5689 9.26278 14.9553 9.48153C15.3416 9.69744 15.6385 9.98295 15.8459 10.3381C16.0533 10.6932 16.157 11.0767 16.157 11.4886C16.157 11.9801 16.0277 12.3991 15.7692 12.7457C15.5135 13.0923 15.1655 13.3324 14.7251 13.4659V13.5341C15.2763 13.625 15.7067 13.8594 16.0163 14.2372C16.326 14.6122 16.4808 15.0767 16.4808 15.6307C16.4808 16.1051 16.3516 16.5312 16.093 16.9091C15.8374 17.2841 15.4879 17.5795 15.0447 17.7955C14.6016 18.0114 14.0973 18.1193 13.532 18.1193Z" fill="black"/>
<path d="M1.24852 9.51925L13.5 0.618034L25.7515 9.51925L21.0718 23.9217H5.92817L1.24852 9.51925Z" stroke="black"/>
</svg>
