<svg width="27" height="27" viewBox="0 0 27 27" fill="none" xmlns="http://www.w3.org/2000/svg">
<path d="M13.5016 18.1193C12.9164 18.1193 12.3993 18.0156 11.9505 17.8082C11.5044 17.598 11.1564 17.3097 10.9064 16.9432C10.6564 16.5739 10.5328 16.1534 10.5357 15.6818C10.5328 15.3125 10.6053 14.9716 10.753 14.6591C10.9007 14.3437 11.1025 14.081 11.3581 13.8707C11.6167 13.6577 11.905 13.5227 12.2232 13.4659V13.4148C11.8056 13.3068 11.4732 13.0724 11.226 12.7116C10.9789 12.348 10.8567 11.9347 10.8596 11.4716C10.8567 11.0284 10.9689 10.6321 11.1962 10.2827C11.4235 9.93324 11.736 9.65767 12.1337 9.45597C12.5343 9.25426 12.9902 9.15341 13.5016 9.15341C14.0073 9.15341 14.459 9.25426 14.8567 9.45597C15.2544 9.65767 15.5669 9.93324 15.7942 10.2827C16.0243 10.6321 16.1408 11.0284 16.1436 11.4716C16.1408 11.9347 16.0144 12.348 15.7644 12.7116C15.5172 13.0724 15.1891 13.3068 14.78 13.4148V13.4659C15.0953 13.5227 15.3794 13.6577 15.6323 13.8707C15.8851 14.081 16.0868 14.3437 16.2374 14.6591C16.388 14.9716 16.4647 15.3125 16.4675 15.6818C16.4647 16.1534 16.3368 16.5739 16.084 16.9432C15.834 17.3097 15.486 17.598 15.04 17.8082C14.5968 18.0156 14.084 18.1193 13.5016 18.1193ZM13.5016 17.1818C13.8965 17.1818 14.2374 17.1179 14.5243 16.9901C14.8113 16.8622 15.0328 16.6818 15.1891 16.4489C15.3453 16.2159 15.4249 15.9432 15.4277 15.6307C15.4249 15.3011 15.3397 15.0099 15.1721 14.7571C15.0044 14.5043 14.7757 14.3054 14.486 14.1605C14.199 14.0156 13.8709 13.9432 13.5016 13.9432C13.1294 13.9432 12.7971 14.0156 12.5044 14.1605C12.2147 14.3054 11.986 14.5043 11.8184 14.7571C11.6536 15.0099 11.5726 15.3011 11.5755 15.6307C11.5726 15.9432 11.6479 16.2159 11.8013 16.4489C11.9576 16.6818 12.1806 16.8622 12.4703 16.9901C12.7601 17.1179 13.1039 17.1818 13.5016 17.1818ZM13.5016 13.0398C13.8141 13.0398 14.0911 12.9773 14.3326 12.8523C14.5769 12.7273 14.7686 12.5526 14.9078 12.3281C15.0471 12.1037 15.1181 11.8409 15.1209 11.5398C15.1181 11.2443 15.0485 10.9872 14.9121 10.7685C14.7757 10.5469 14.5868 10.3764 14.3453 10.2571C14.1039 10.1349 13.8226 10.0739 13.5016 10.0739C13.1749 10.0739 12.8894 10.1349 12.6451 10.2571C12.4007 10.3764 12.2118 10.5469 12.0783 10.7685C11.9448 10.9872 11.8794 11.2443 11.8823 11.5398C11.8794 11.8409 11.9462 12.1037 12.0826 12.3281C12.2218 12.5526 12.4135 12.7273 12.6578 12.8523C12.9022 12.9773 13.1834 13.0398 13.5016 13.0398Z" fill="black"/>
<path d="M1.24852 9.51925L13.5 0.618034L25.7515 9.51925L21.0718 23.9217H5.92817L1.24852 9.51925Z" stroke="black"/>
</svg>
