<svg width="27" height="27" viewBox="0 0 27 27" fill="none" xmlns="http://www.w3.org/2000/svg">
<path d="M11.0497 9.27273V18H9.9929V10.3807H9.94176L7.81108 11.7955V10.7216L9.9929 9.27273H11.0497ZM13.5597 18V17.233L16.4403 14.0795C16.7784 13.7102 17.0568 13.3892 17.2756 13.1165C17.4943 12.8409 17.6563 12.5824 17.7614 12.3409C17.8693 12.0966 17.9233 11.8409 17.9233 11.5739C17.9233 11.267 17.8494 11.0014 17.7017 10.777C17.5568 10.5526 17.358 10.3793 17.1051 10.2571C16.8523 10.1349 16.5682 10.0739 16.2528 10.0739C15.9176 10.0739 15.625 10.1435 15.375 10.2827C15.1278 10.419 14.9361 10.6108 14.7997 10.858C14.6662 11.1051 14.5994 11.3949 14.5994 11.7273H13.5938C13.5938 11.2159 13.7116 10.767 13.9474 10.3807C14.1832 9.99432 14.5043 9.69318 14.9105 9.47727C15.3196 9.26136 15.7784 9.15341 16.2869 9.15341C16.7983 9.15341 17.2514 9.26136 17.6463 9.47727C18.0412 9.69318 18.3509 9.98437 18.5753 10.3509C18.7997 10.7173 18.9119 11.125 18.9119 11.5739C18.9119 11.8949 18.8537 12.2088 18.7372 12.5156C18.6236 12.8196 18.4247 13.1591 18.1406 13.5341C17.8594 13.9062 17.4688 14.3608 16.9688 14.8977L15.0085 16.9943V17.0625H19.0653V18H13.5597Z" fill="black"/>
<path d="M1.24852 9.51925L13.5 0.618034L25.7515 9.51925L21.0718 23.9217H5.92817L1.24852 9.51925Z" stroke="black"/>
</svg>
