<svg width="40" height="42" viewBox="0 0 40 42" fill="none" xmlns="http://www.w3.org/2000/svg">
<path d="M20.3042 27.8498C19.581 27.8498 18.9298 27.706 18.3505 27.4184C17.7712 27.1308 17.307 26.7364 16.9577 26.2351C16.6085 25.7339 16.4175 25.1628 16.3846 24.5219H17.8637C17.9212 25.093 18.18 25.5654 18.6402 25.9393C19.1045 26.3091 19.6591 26.494 20.3042 26.494C20.8218 26.494 21.282 26.3728 21.6846 26.1304C22.0914 25.888 22.4098 25.5552 22.6399 25.132C22.8741 24.7047 22.9912 24.2219 22.9912 23.6837C22.9912 23.1332 22.87 22.6422 22.6276 22.2108C22.3893 21.7753 22.0606 21.4322 21.6415 21.1816C21.2224 20.931 20.7438 20.8036 20.2056 20.7995C19.8193 20.7954 19.4229 20.855 19.0161 20.9782C18.6094 21.0974 18.2745 21.2514 18.0116 21.4404L16.5818 21.2679L17.346 15.0557H23.9033V16.4116H18.6279L18.1841 20.1339H18.2581C18.5169 19.9285 18.8415 19.758 19.2318 19.6224C19.6221 19.4868 20.0289 19.419 20.4521 19.419C21.2245 19.419 21.9127 19.6039 22.5166 19.9737C23.1247 20.3393 23.6013 20.8406 23.9464 21.4774C24.2956 22.1142 24.4702 22.8415 24.4702 23.6591C24.4702 24.4643 24.2895 25.1833 23.9279 25.8161C23.5705 26.4447 23.0774 26.9418 22.4488 27.3075C21.8202 27.669 21.1053 27.8498 20.3042 27.8498Z" fill="black"/>
<path d="M3.00868 32.2769L20.8088 1.44622L38.6089 32.2769H3.00868Z" stroke="black" stroke-width="1.44622"/>
</svg>
