<svg width="40" height="42" viewBox="0 0 40 42" fill="none" xmlns="http://www.w3.org/2000/svg">
<path d="M20.4629 27.8498C19.9452 27.8416 19.4275 27.743 18.9098 27.554C18.3922 27.365 17.9197 27.0466 17.4924 26.5987C17.0651 26.1468 16.722 25.5367 16.4632 24.7684C16.2043 23.996 16.0749 23.0263 16.0749 21.8595C16.0749 20.742 16.1797 19.7518 16.3892 18.889C16.5988 18.0221 16.9028 17.2928 17.3013 16.7012C17.6999 16.1055 18.1806 15.6535 18.7434 15.3454C19.3104 15.0372 19.9493 14.8832 20.6601 14.8832C21.3668 14.8832 21.9954 15.0249 22.5459 15.3084C23.1006 15.5878 23.5525 15.9781 23.9017 16.4793C24.251 16.9806 24.4769 17.5578 24.5797 18.2111H23.0759C22.9362 17.6441 22.6651 17.1737 22.2624 16.7998C21.8598 16.4259 21.3257 16.239 20.6601 16.239C19.6822 16.239 18.9119 16.6642 18.349 17.5147C17.7903 18.3652 17.5088 19.5587 17.5047 21.0953H17.6033C17.8334 20.7461 18.1066 20.4482 18.423 20.2017C18.7434 19.9511 19.0968 19.758 19.483 19.6224C19.8692 19.4868 20.278 19.419 20.7094 19.419C21.4325 19.419 22.094 19.5998 22.6938 19.9614C23.2937 20.3188 23.7744 20.8139 24.1359 21.4466C24.4975 22.0752 24.6783 22.7963 24.6783 23.6098C24.6783 24.3904 24.5037 25.1053 24.1544 25.7544C23.8052 26.3995 23.3142 26.9131 22.6815 27.2951C22.0529 27.6731 21.3134 27.858 20.4629 27.8498ZM20.4629 26.494C20.9806 26.494 21.4448 26.3646 21.8557 26.1057C22.2706 25.8469 22.5973 25.4997 22.8356 25.0642C23.078 24.6287 23.1992 24.1439 23.1992 23.6098C23.1992 23.088 23.0821 22.6134 22.8479 22.1861C22.6178 21.7547 22.2994 21.4117 21.8927 21.157C21.49 20.9022 21.0299 20.7749 20.5122 20.7749C20.1219 20.7749 19.7583 20.8529 19.4214 21.009C19.0845 21.1611 18.7886 21.3706 18.5339 21.6377C18.2833 21.9047 18.0861 22.2108 17.9423 22.5559C17.7985 22.8969 17.7266 23.2564 17.7266 23.6344C17.7266 24.1357 17.8437 24.604 18.0779 25.0395C18.3162 25.4751 18.6407 25.8263 19.0516 26.0934C19.4665 26.3605 19.937 26.494 20.4629 26.494Z" fill="black"/>
<path d="M3.05647 32.2769L20.8566 1.44622L38.6567 32.2769H3.05647Z" stroke="black" stroke-width="1.44622"/>
</svg>
