<svg width="40" height="42" viewBox="0 0 40 42" fill="none" xmlns="http://www.w3.org/2000/svg">
<path d="M16.242 27.6772V26.5679L20.408 22.0074C20.897 21.4733 21.2996 21.009 21.616 20.6146C21.9323 20.2161 22.1665 19.8422 22.3185 19.493C22.4746 19.1396 22.5527 18.7699 22.5527 18.3837C22.5527 17.9399 22.4459 17.5558 22.2322 17.2312C22.0227 16.9066 21.7351 16.656 21.3694 16.4793C21.0038 16.3027 20.5929 16.2143 20.1369 16.2143C19.6521 16.2143 19.2289 16.315 18.8673 16.5163C18.5099 16.7135 18.2326 16.9909 18.0353 17.3483C17.8422 17.7058 17.7457 18.1248 17.7457 18.6055H16.2913C16.2913 17.866 16.4618 17.2168 16.8028 16.6581C17.1438 16.0993 17.6081 15.6638 18.1956 15.3515C18.7872 15.0393 19.4507 14.8832 20.1862 14.8832C20.9257 14.8832 21.581 15.0393 22.1521 15.3515C22.7232 15.6638 23.171 16.0849 23.4956 16.6149C23.8202 17.1449 23.9825 17.7345 23.9825 18.3837C23.9825 18.8479 23.8983 19.3019 23.7298 19.7457C23.5655 20.1853 23.2779 20.6762 22.867 21.2186C22.4603 21.7568 21.8953 22.4142 21.1722 23.1907L18.3373 26.2228V26.3214H24.2044V27.6772H16.242Z" fill="black"/>
<path d="M2.86524 32.2769L20.6653 1.44622L38.4654 32.2769H2.86524Z" stroke="black" stroke-width="1.44622"/>
</svg>
