<svg width="27" height="27" viewBox="0 0 27 27" fill="none" xmlns="http://www.w3.org/2000/svg">
<path d="M10.9325 9.27273V18H9.87571V10.3807H9.82457L7.69389 11.7955V10.7216L9.87571 9.27273H10.9325ZM16.2891 18.1193C15.647 18.1193 15.1001 17.9446 14.6484 17.5952C14.1967 17.2429 13.8516 16.733 13.6129 16.0653C13.3743 15.3949 13.255 14.5852 13.255 13.6364C13.255 12.6932 13.3743 11.8878 13.6129 11.2202C13.8544 10.5497 14.201 10.0384 14.6527 9.68608C15.1072 9.33097 15.6527 9.15341 16.2891 9.15341C16.9254 9.15341 17.4695 9.33097 17.9212 9.68608C18.3757 10.0384 18.7223 10.5497 18.9609 11.2202C19.2024 11.8878 19.3232 12.6932 19.3232 13.6364C19.3232 14.5852 19.2038 15.3949 18.9652 16.0653C18.7266 16.733 18.3814 17.2429 17.9297 17.5952C17.478 17.9446 16.9311 18.1193 16.2891 18.1193ZM16.2891 17.1818C16.9254 17.1818 17.4197 16.875 17.772 16.2614C18.1243 15.6477 18.3004 14.7727 18.3004 13.6364C18.3004 12.8807 18.2195 12.2372 18.0575 11.706C17.8984 11.1747 17.6683 10.7699 17.3672 10.4915C17.0689 10.2131 16.7095 10.0739 16.2891 10.0739C15.6584 10.0739 15.1655 10.3849 14.8104 11.0071C14.4553 11.6264 14.2777 12.5028 14.2777 13.6364C14.2777 14.392 14.3572 15.0341 14.5163 15.5625C14.6754 16.0909 14.9041 16.4929 15.2024 16.7685C15.5036 17.044 15.8658 17.1818 16.2891 17.1818Z" fill="black"/>
<path d="M1.24852 9.51925L13.5 0.618034L25.7515 9.51925L21.0718 23.9217H5.92817L1.24852 9.51925Z" stroke="black"/>
</svg>
