<svg width="27" height="27" viewBox="0 0 27 27" fill="none" xmlns="http://www.w3.org/2000/svg">
<path d="M13.4803 18.1193C12.9803 18.1193 12.53 18.0199 12.1294 17.821C11.7289 17.6222 11.4078 17.3494 11.1664 17.0028C10.9249 16.6562 10.7928 16.2614 10.7701 15.8182H11.7928C11.8326 16.2131 12.0115 16.5398 12.3297 16.7983C12.6507 17.054 13.0343 17.1818 13.4803 17.1818C13.8382 17.1818 14.1564 17.098 14.4348 16.9304C14.7161 16.7628 14.9363 16.5327 15.0953 16.2401C15.2573 15.9446 15.3382 15.6108 15.3382 15.2386C15.3382 14.858 15.2544 14.5185 15.0868 14.2202C14.9221 13.919 14.6948 13.6818 14.405 13.5085C14.1152 13.3352 13.7843 13.2472 13.4121 13.2443C13.1451 13.2415 12.8709 13.2827 12.5897 13.3679C12.3084 13.4503 12.0769 13.5568 11.8951 13.6875L10.9064 13.5682L11.4348 9.27273H15.9689V10.2102H12.3212L12.0144 12.7841H12.0655C12.2445 12.642 12.4689 12.5241 12.7388 12.4304C13.0087 12.3366 13.29 12.2898 13.5826 12.2898C14.1167 12.2898 14.5925 12.4176 15.0101 12.6733C15.4306 12.9261 15.7601 13.2727 15.9988 13.7131C16.2402 14.1534 16.361 14.6562 16.361 15.2216C16.361 15.7784 16.236 16.2756 15.986 16.7131C15.7388 17.1477 15.3979 17.4915 14.9632 17.7443C14.5286 17.9943 14.0343 18.1193 13.4803 18.1193Z" fill="black"/>
<path d="M1.24852 9.51925L13.5 0.618034L25.7515 9.51925L21.0718 23.9217H5.92817L1.24852 9.51925Z" stroke="black"/>
</svg>
