<svg width="27" height="27" viewBox="0 0 27 27" fill="none" xmlns="http://www.w3.org/2000/svg">
<path d="M13.4377 9.15341C13.7956 9.15625 14.1536 9.22443 14.5115 9.35795C14.8695 9.49148 15.1962 9.71307 15.4917 10.0227C15.7871 10.3295 16.0243 10.7486 16.2033 11.2798C16.3823 11.8111 16.4718 12.4773 16.4718 13.2784C16.4718 14.054 16.3979 14.7429 16.2502 15.3452C16.1053 15.9446 15.8951 16.4503 15.6195 16.8622C15.3468 17.2741 15.0144 17.5866 14.6223 17.7997C14.2331 18.0128 13.7928 18.1193 13.3013 18.1193C12.8127 18.1193 12.3766 18.0227 11.9931 17.8295C11.6124 17.6335 11.2999 17.3622 11.0556 17.0156C10.8141 16.6662 10.6593 16.2614 10.5911 15.8011H11.6309C11.7246 16.2017 11.9107 16.5327 12.1891 16.794C12.4703 17.0526 12.8411 17.1818 13.3013 17.1818C13.9746 17.1818 14.5059 16.8878 14.8951 16.2997C15.2871 15.7116 15.4831 14.8807 15.4831 13.8068H15.415C15.2559 14.0455 15.0669 14.2514 14.8482 14.4247C14.6294 14.598 14.3865 14.7315 14.1195 14.8253C13.8525 14.919 13.5684 14.9659 13.2672 14.9659C12.7672 14.9659 12.3084 14.8423 11.8908 14.5952C11.476 14.3452 11.1436 14.0028 10.8936 13.5682C10.6465 13.1307 10.5229 12.6307 10.5229 12.0682C10.5229 11.5341 10.6422 11.0455 10.8809 10.6023C11.1223 10.1562 11.4604 9.80114 11.8951 9.53693C12.3326 9.27273 12.8468 9.14489 13.4377 9.15341ZM13.4377 10.0909C13.0797 10.0909 12.7573 10.1804 12.4703 10.3594C12.1863 10.5355 11.9604 10.7741 11.7928 11.0753C11.628 11.3736 11.5456 11.7045 11.5456 12.0682C11.5456 12.4318 11.6252 12.7628 11.7843 13.0611C11.9462 13.3565 12.1664 13.5923 12.4448 13.7685C12.726 13.9418 13.0456 14.0284 13.4036 14.0284C13.6735 14.0284 13.9249 13.9759 14.1578 13.8707C14.3908 13.7628 14.5939 13.6165 14.7672 13.4318C14.9434 13.2443 15.0811 13.0327 15.1806 12.7969C15.28 12.5582 15.3297 12.3097 15.3297 12.0511C15.3297 11.7102 15.2473 11.3906 15.0826 11.0923C14.9206 10.794 14.6962 10.5526 14.4093 10.3679C14.1252 10.1832 13.8013 10.0909 13.4377 10.0909Z" fill="black"/>
<path d="M1.24852 9.51925L13.5 0.618034L25.7515 9.51925L21.0718 23.9217H5.92817L1.24852 9.51925Z" stroke="black"/>
</svg>
