<svg width="27" height="27" viewBox="0 0 27 27" fill="none" xmlns="http://www.w3.org/2000/svg">
<path d="M13.557 18.1193C13.199 18.1136 12.8411 18.0455 12.4831 17.9148C12.1252 17.7841 11.7985 17.5639 11.503 17.2543C11.2076 16.9418 10.9703 16.5199 10.7914 15.9886C10.6124 15.4545 10.5229 14.7841 10.5229 13.9773C10.5229 13.2045 10.5953 12.5199 10.7402 11.9233C10.8851 11.3239 11.0953 10.8196 11.3709 10.4105C11.6465 9.99858 11.9789 9.68608 12.3681 9.47301C12.7601 9.25994 13.2019 9.15341 13.6934 9.15341C14.182 9.15341 14.6167 9.25142 14.9973 9.44744C15.3809 9.64062 15.6934 9.91051 15.9348 10.2571C16.1763 10.6037 16.3326 11.0028 16.4036 11.4545H15.3638C15.2672 11.0625 15.0797 10.7372 14.8013 10.4787C14.5229 10.2202 14.1536 10.0909 13.6934 10.0909C13.0172 10.0909 12.4846 10.3849 12.0953 10.973C11.709 11.5611 11.5144 12.3864 11.5115 13.4489H11.5797C11.7388 13.2074 11.9277 13.0014 12.1465 12.831C12.3681 12.6577 12.6124 12.5241 12.8794 12.4304C13.1465 12.3366 13.4292 12.2898 13.7275 12.2898C14.2275 12.2898 14.6848 12.4148 15.0996 12.6648C15.5144 12.9119 15.8468 13.2543 16.0968 13.6918C16.3468 14.1264 16.4718 14.625 16.4718 15.1875C16.4718 15.7273 16.351 16.2216 16.1096 16.6705C15.8681 17.1165 15.5286 17.4716 15.0911 17.7358C14.6564 17.9972 14.1451 18.125 13.557 18.1193ZM13.557 17.1818C13.915 17.1818 14.236 17.0923 14.5201 16.9134C14.807 16.7344 15.0328 16.4943 15.1976 16.1932C15.3652 15.892 15.449 15.5568 15.449 15.1875C15.449 14.8267 15.3681 14.4986 15.2061 14.2031C15.0471 13.9048 14.8269 13.6676 14.5456 13.4915C14.2672 13.3153 13.949 13.2273 13.5911 13.2273C13.3212 13.2273 13.0698 13.2812 12.8368 13.3892C12.6039 13.4943 12.3993 13.6392 12.2232 13.8239C12.0499 14.0085 11.9135 14.2202 11.8141 14.4588C11.7147 14.6946 11.665 14.9432 11.665 15.2045C11.665 15.5511 11.7459 15.875 11.9078 16.1761C12.0726 16.4773 12.2971 16.7202 12.5811 16.9048C12.8681 17.0895 13.1934 17.1818 13.557 17.1818Z" fill="black"/>
<path d="M1.24852 9.51925L13.5 0.618034L25.7515 9.51925L21.0718 23.9217H5.92817L1.24852 9.51925Z" stroke="black"/>
</svg>
