<svg width="40" height="42" viewBox="0 0 40 42" fill="none" xmlns="http://www.w3.org/2000/svg">
<path d="M20.2833 27.8498C19.4698 27.8498 18.7446 27.7101 18.1078 27.4307C17.4751 27.1513 16.9718 26.7631 16.5979 26.266C16.2281 25.7647 16.0268 25.1833 15.994 24.5219H17.547C17.5799 24.9286 17.7196 25.2799 17.9661 25.5757C18.2126 25.8674 18.5351 26.0934 18.9336 26.2536C19.3322 26.4139 19.7738 26.494 20.2586 26.494C20.801 26.494 21.2817 26.3995 21.7008 26.2105C22.1198 26.0215 22.4485 25.7585 22.6868 25.4216C22.9251 25.0847 23.0443 24.6944 23.0443 24.2507C23.0443 23.7864 22.9292 23.3776 22.6991 23.0243C22.4691 22.6668 22.1322 22.3875 21.6884 22.1861C21.2447 21.9848 20.7024 21.8842 20.0614 21.8842H19.0507V20.5283H20.0614C20.5627 20.5283 21.0023 20.438 21.3803 20.2572C21.7624 20.0764 22.0603 19.8217 22.2739 19.493C22.4917 19.1643 22.6005 18.7781 22.6005 18.3344C22.6005 17.9071 22.506 17.5353 22.317 17.2189C22.128 16.9025 21.861 16.656 21.5159 16.4793C21.1749 16.3027 20.7722 16.2143 20.308 16.2143C19.8724 16.2143 19.4616 16.2945 19.0754 16.4547C18.6933 16.6108 18.381 16.8388 18.1386 17.1388C17.8962 17.4346 17.7647 17.792 17.7442 18.2111H16.2651C16.2898 17.5496 16.489 16.9703 16.8629 16.4732C17.2368 15.9719 17.7257 15.5816 18.3297 15.3022C18.9377 15.0229 19.6054 14.8832 20.3326 14.8832C21.1132 14.8832 21.7829 15.0414 22.3417 15.3577C22.9005 15.67 23.3298 16.0829 23.6297 16.5964C23.9297 17.11 24.0796 17.6647 24.0796 18.2604C24.0796 18.9712 23.8927 19.5772 23.5188 20.0785C23.149 20.5797 22.6457 20.9269 22.0089 21.12V21.2186C22.806 21.3501 23.4284 21.689 23.8762 22.2355C24.3241 22.7778 24.548 23.4495 24.548 24.2507C24.548 24.9368 24.3611 25.5531 23.9872 26.0996C23.6174 26.6419 23.112 27.0692 22.4711 27.3814C21.8302 27.6937 21.1009 27.8498 20.2833 27.8498Z" fill="black"/>
<path d="M2.91303 32.2769L20.7131 1.44622L38.5132 32.2769H2.91303Z" stroke="black" stroke-width="1.44622"/>
</svg>
