<svg width="24" height="24" viewBox="0 0 24 24" fill="none" xmlns="http://www.w3.org/2000/svg">
<path d="M12 4C16.4183 4 20 7.58172 20 12C20 16.4183 16.4183 20 12 20C9.44837 20 7.17575 18.8054 5.71091 16.945C5.4265 16.5838 4.94324 16.4227 4.51638 16.5935C3.91225 16.8351 3.66246 17.5613 4.05827 18.0778C5.88596 20.4624 8.76341 22 12 22C17.5229 22 22 17.5228 22 12C22 6.47715 17.5229 2 12 2C8.78486 2 5.9241 3.51732 4.09474 5.87496C4.0653 5.91289 4.00388 5.89226 4.00388 5.84425V3C4.00388 2.44772 3.55616 2 3.00388 2C2.45159 2 2.00388 2.44772 2.00388 3V9C2.00388 9.55228 2.45159 10 3.00388 10H9C9.55229 10 10 9.55228 10 9C10 8.44772 9.55229 8 9 8H5.24363C5.16662 8 5.11872 7.91665 5.15872 7.85084C6.56193 5.54213 9.10087 4 12 4Z" fill="#0087CD"/>
</svg>
